<?xml version="1.0" encoding="UTF-8"?>
<!DOCTYPE svg PUBLIC "-//W3C//DTD SVG 1.1//EN" "http://www.w3.org/Graphics/SVG/1.1/DTD/svg11.dtd">
<!-- Creator: CorelDRAW X7 -->
<svg xmlns="http://www.w3.org/2000/svg" xml:space="preserve" width="111.023mm" height="47.1731mm" version="1.1" style="shape-rendering:geometricPrecision; text-rendering:geometricPrecision; image-rendering:optimizeQuality; fill-rule:evenodd; clip-rule:evenodd"
viewBox="0 0 17950 7627"
 xmlns:xlink="http://www.w3.org/1999/xlink">
 <defs>
  <style type="text/css">
   <![CDATA[
    .fil0 {fill:#FFFFFF}
   ]]>
  </style>
 </defs>
 <g id="图层_x0020_1">
  <metadata id="CorelCorpID_0Corel-Layer"/>
  <polygon class="fil0" points="13146,7605 13146,6517 12237,6517 12237,7605 "/>
  <polygon class="fil0" points="5222,3100 5331,1795 7978,1795 7978,739 5423,739 5447,0 4375,0 4057,4155 6863,4155 6712,6517 5700,6517 5617,7605 7709,7605 7978,3100 "/>
  <polygon class="fil0" points="2438,821 2438,7605 3259,7605 3259,821 "/>
  <polygon class="fil0" points="4004,4850 3907,5933 6190,5933 6252,4850 "/>
  <polygon class="fil0" points="1218,2192 1218,7605 2040,7605 2040,2192 "/>
  <polygon class="fil0" points="0,3372 0,7605 821,7605 821,3372 "/>
  <polygon class="fil0" points="4871,7605 4954,6517 3876,6517 3793,7605 "/>
  <path class="fil0" d="M16752 4155l0 2363 -1667 0 0 -2363 1667 0zm1198 -2874l0 -1089 -4692 0 0 1089 1383 0c-45,520 -204,982 -477,1386 -274,406 -760,511 -1173,667l-754 184 0 -2239 670 0 0 -1087 -670 0 0 -167 -1089 0 0 167 -788 0 0 1087 788 0 0 2507 -871 217 0 1165 871 -217 0 1566 1089 0 0 -1910c397,-104 1037,-236 1776,-512l0 3532 3811 0 0 -4520 -2638 0c329,-535 505,-1144 527,-1826l2237 0z"/>
 </g>
</svg>
